HIERARCHY
ROOT SpineBase
{
  OFFSET 0.000000 0.000000 0.000000
  CHANNELS 6 Xposition Yposition Zposition Zrotation Xrotation Yrotation
  JOINT SpineMid
  {
    OFFSET -0.000000 30.512418 0.000000
    CHANNELS 3 Zrotation Xrotation Yrotation
    JOINT SpineShoulder
    {
      OFFSET 0.094744 22.627059 -0.693397
      CHANNELS 3 Zrotation Xrotation Yrotation
      JOINT Neck
      {
        OFFSET -0.006776 7.482785 -0.586702
        CHANNELS 3 Zrotation Xrotation Yrotation
        JOINT Head
        {
          OFFSET -4.659221 12.655645 3.709705
          CHANNELS 3 Zrotation Xrotation Yrotation
          End Site
          {
            OFFSET 0 0 0
          }
        }
      }
      JOINT ShoulderLeft
      {
        OFFSET -13.226768 -7.808592 11.251367
        CHANNELS 3 Zrotation Xrotation Yrotation
        JOINT ElbowLeft
        {
          OFFSET -1.443048 -25.784848 -0.029364
          CHANNELS 3 Zrotation Xrotation Yrotation
          JOINT WristLeft
          {
            OFFSET -1.361531 -18.259888 -7.758841
            CHANNELS 3 Zrotation Xrotation Yrotation
            JOINT HandLeft
            {
              OFFSET 0.329027 -2.376034 -3.201278
              CHANNELS 3 Zrotation Xrotation Yrotation
              JOINT HandTipLeft
              {
                OFFSET -0.595100 -6.415553 -1.346616
                CHANNELS 3 Zrotation Xrotation Yrotation
                End Site
                {
                  OFFSET 0 0 0
                }
              }
              JOINT ThumbLeft
              {
                OFFSET -2.813035 1.635593 -1.351699
                CHANNELS 3 Zrotation Xrotation Yrotation
                End Site
                {
                  OFFSET 0 0 0
                }
              }
            }
          }
        }
      }
      JOINT ShoulderRight
      {
        OFFSET 11.300673 -3.249316 -10.570432
        CHANNELS 3 Zrotation Xrotation Yrotation
        JOINT ElbowRight
        {
          OFFSET 11.686591 -21.785217 -2.871948
          CHANNELS 3 Zrotation Xrotation Yrotation
          JOINT WristRight
          {
            OFFSET 2.393304 -22.138010 -4.018680
            CHANNELS 3 Zrotation Xrotation Yrotation
            JOINT HandRight
            {
              OFFSET -0.386061 -6.564154 -2.096419
              CHANNELS 3 Zrotation Xrotation Yrotation
              JOINT HandTipRight
              {
                OFFSET 1.060084 -6.099563 -0.568486
                CHANNELS 3 Zrotation Xrotation Yrotation
                End Site
                {
                  OFFSET 0 0 0
                }
              }
              JOINT ThumbRight
              {
                OFFSET -2.969598 0.211041 -0.200475
                CHANNELS 3 Zrotation Xrotation Yrotation
                End Site
                {
                  OFFSET 0 0 0
                }
              }
            }
          }
        }
      }
    }
  }
  JOINT HipLeft
  {
    OFFSET -5.181195 -0.039473 0.513675
    CHANNELS 3 Zrotation Xrotation Yrotation
    JOINT KneeLeft
    {
      OFFSET -2.126846 -29.304736 0.848226
      CHANNELS 3 Zrotation Xrotation Yrotation
      JOINT AnkleLeft
      {
        OFFSET -0.456507 -30.017853 5.141742
        CHANNELS 3 Zrotation Xrotation Yrotation
        JOINT FootLeft
        {
          OFFSET -5.964925 -1.599461 -10.077749
          CHANNELS 3 Zrotation Xrotation Yrotation
          End Site
          {
            OFFSET 0 0 0
          }
        }
      }
    }
  }
  JOINT HipRight
  {
    OFFSET 4.414880 1.886056 -7.400184
    CHANNELS 3 Zrotation Xrotation Yrotation
    JOINT KneeRight
    {
      OFFSET 8.858980 -27.004963 -2.746713
      CHANNELS 3 Zrotation Xrotation Yrotation
      JOINT AnkleRight
      {
        OFFSET 7.145784 -31.352156 4.853371
        CHANNELS 3 Zrotation Xrotation Yrotation
        JOINT FootRight
        {
          OFFSET -0.360888 -6.433288 -6.542297
          CHANNELS 3 Zrotation Xrotation Yrotation
          End Site
          {
            OFFSET 0 0 0
          }
        }
      }
    }
  }
}
MOTION
Frames: 8
Frame Time: 0.033333
41.086816 65.058007 349.694814 0.000000 0.000000 39.512319 -0.000000 -0.000000 -39.512319 -0.000000 0.000000 0.000000 -0.000000 0.000000 0.000000 0.000000 0.000000 0.000000 -0.000000 0.000000 0.000000 -0.000000 0.000000 0.000000 -0.000000 0.000000 0.000000 -0.000000 0.000000 0.000000 0.000000 0.000000 0.000000 0.000000 0.000000 0.000000 -0.000000 0.000000 0.000000 -0.000000 0.000000 0.000000 -0.000000 0.000000 0.000000 -0.000000 0.000000 0.000000 0.000000 0.000000 0.000000 0.000000 0.000000 0.000000 -0.000000 -0.000000 -39.512319 -0.000000 0.000000 0.000000 -0.000000 0.000000 0.000000 0.000000 0.000000 0.000000 -0.000000 -0.000000 -39.512319 -0.000000 0.000000 0.000000 -0.000000 0.000000 0.000000 0.000000 0.000000 0.000000
41.017452 65.058460 349.559833 -0.184530 0.191195 40.079415 0.018094 -0.265103 -40.079065 -0.000000 0.000000 0.000000 -0.000000 0.000000 0.000000 0.000000 0.000000 0.000000 -0.167929 1.111809 -0.060398 0.517210 0.735061 -0.219784 -1.316424 -10.771664 0.305610 -0.447059 8.701024 0.339491 0.000000 0.000000 0.000000 0.000000 0.000000 0.000000 -2.768905 1.755971 1.364465 -3.078394 -0.044145 -0.130253 -0.086525 -2.630796 0.555290 -1.572822 5.780952 0.003031 0.000000 0.000000 0.000000 0.000000 0.000000 0.000000 0.018094 -0.265103 -40.079065 -0.000000 0.000000 0.000000 1.906983 -3.235387 0.140056 0.000000 0.000000 0.000000 0.018094 -0.265103 -40.079065 -0.000000 0.000000 0.000000 -0.000000 0.000000 0.000000 0.000000 0.000000 0.000000
40.950090 65.061022 349.459033 -0.358592 0.331053 40.650429 0.056407 -0.484769 -40.649154 -0.000000 0.000000 0.000000 0.974293 -0.265432 -0.380128 0.000000 0.000000 0.000000 -0.316278 2.136154 -0.113287 0.874586 1.033103 -0.338823 -2.351160 -19.866072 0.341631 -0.461703 16.415073 0.671685 0.000000 0.000000 0.000000 0.000000 0.000000 0.000000 -5.625181 3.411701 2.802878 -5.425807 -0.312239 -0.510018 -0.459728 -4.892000 0.904084 -2.933022 10.768754 0.586864 0.000000 0.000000 0.000000 0.000000 0.000000 0.000000 0.056407 -0.484769 -40.649154 -0.000000 0.000000 0.000000 4.026934 -6.785952 0.388700 0.000000 0.000000 0.000000 0.056407 -0.484769 -40.649154 -0.000000 0.000000 0.000000 -0.264734 -1.057960 0.329174 0.000000 0.000000 0.000000
40.884729 65.065693 349.392414 -0.522144 0.419469 41.228674 0.116256 -0.659598 -41.226094 -0.745714 0.332148 -0.056021 2.063756 -0.680043 -0.441371 0.000000 0.000000 0.000000 0.298066 2.738113 -0.101554 1.069532 0.906854 -0.360555 -3.139877 -26.963761 0.195157 -0.067399 22.830099 0.775499 0.000000 0.000000 0.000000 0.000000 0.000000 0.000000 -7.738597 4.571075 4.273454 -7.188137 -0.730652 -1.069004 -0.955775 -6.766001 1.087757 -4.220711 14.866511 1.539162 0.000000 0.000000 0.000000 0.000000 0.000000 0.000000 0.415879 -1.593260 -41.159206 -0.840080 0.505714 -0.057289 6.373093 -10.631626 0.776900 0.000000 0.000000 0.000000 -0.293359 -1.519485 -41.560925 -0.263978 0.915122 0.329150 -0.356374 -1.506879 0.448177 0.000000 0.000000 0.000000
40.821369 65.072473 349.359977 -0.675147 0.456356 41.817110 0.198926 -0.790257 -41.813050 -0.920042 0.373831 -0.068817 2.486183 -0.772520 -0.513931 0.000000 0.000000 0.000000 0.362011 3.537396 -0.128015 1.101669 0.366043 -0.290503 -3.694181 -32.030566 -0.062308 0.803483 27.919728 0.465123 0.000000 0.000000 0.000000 0.000000 0.000000 0.000000 -10.325953 5.814005 5.679550 -8.539273 -1.234251 -1.724339 -1.439640 -8.258487 1.159171 -5.567973 18.089864 2.695889 0.000000 0.000000 0.000000 0.000000 0.000000 0.000000 0.643813 -1.861063 -41.736052 -1.044803 0.502845 -0.062120 8.952615 -14.725825 1.336867 0.000000 0.000000 0.000000 -0.250367 -1.815644 -42.207687 -0.356102 1.061310 0.387719 -0.423095 -1.908192 0.539291 0.000000 0.000000 0.000000
40.760010 65.081361 349.361721 -0.817566 0.441641 42.418386 0.305704 -0.877496 -42.412894 -1.057247 0.380949 -0.079059 2.776666 -0.797427 -0.551944 0.000000 0.000000 0.000000 0.408679 4.276344 -0.151775 0.972003 -0.584406 -0.135787 -4.011438 -35.188684 -0.375302 2.275911 31.810576 -0.420042 0.000000 0.000000 0.000000 0.000000 0.000000 0.000000 -12.754215 6.847405 6.974817 -9.653052 -1.771499 -2.396422 -1.811675 -9.387514 1.171203 -7.086641 20.505231 3.942189 0.000000 0.000000 0.000000 0.000000 0.000000 0.000000 0.923054 -2.003313 -42.332037 -1.214467 0.416447 -0.060924 11.763150 -18.992190 2.097744 0.000000 0.000000 0.000000 -0.130167 -2.008072 -42.838846 0.395039 1.190061 0.546203 -1.316258 -2.320637 0.458832 0.000000 0.000000 0.000000
40.646805 65.120750 349.438486 -1.035769 0.325173 43.159129 0.533198 -0.945658 -43.151789 -1.196508 0.345733 -0.089917 2.953955 -0.766043 -0.554245 0.000000 0.000000 0.000000 0.397530 5.244234 -0.180692 0.701711 -2.828311 0.182805 -4.489743 -36.348827 -0.109961 5.881918 34.938053 -3.419306 0.000000 0.000000 0.000000 0.000000 0.000000 0.000000 -15.128886 7.757375 8.233310 -10.846585 -2.248326 -3.052500 -2.761477 -11.010472 1.114983 -9.064013 23.220794 5.699988 0.000000 0.000000 0.000000 0.000000 0.000000 0.000000 1.498264 -2.025229 -43.075685 -1.442029 0.129335 -0.049457 16.432543 -25.589895 3.550344 0.000000 0.000000 0.000000 0.307054 -2.143560 -43.561473 0.256220 1.064491 0.542423 -1.432101 -2.704259 0.519106 0.000000 0.000000 0.000000
40.596380 65.140614 349.534219 -1.162256 0.179327 43.858220 0.713883 -0.934564 -43.850578 -1.271315 0.267711 -0.096490 2.947107 -0.655720 -0.517070 0.000000 0.000000 0.000000 0.416761 5.896045 -0.199680 0.397270 -4.709245 0.437822 -4.506324 -37.258808 -0.594988 8.171350 37.577651 -5.110960 0.000000 0.000000 0.000000 0.000000 0.000000 0.000000 -17.127658 8.260439 9.122297 -12.399658 -2.655377 -3.464164 -2.715129 -11.600520 1.095061 -12.441487 25.657635 8.378078 0.000000 0.000000 0.000000 0.000000 0.000000 0.000000 1.940956 -1.854760 -43.790109 -1.522273 -0.185044 -0.033060 23.822146 -34.765890 6.216450 0.000000 0.000000 0.000000 0.598840 -2.078400 -44.222059 0.300250 0.920607 0.518076 -1.496690 -3.046607 0.495379 0.000000 0.000000 0.000000
